<svg width="17" height="18" viewBox="0 0 17 18" fill="none" xmlns="http://www.w3.org/2000/svg">
<path opacity="0.4" fill-rule="evenodd" clip-rule="evenodd" d="M6.24427 4.42151H10.5313V3.42334H6.24427V4.42151ZM5.26903 3.46434V3.4693C4.93437 3.49974 4.60331 3.5662 4.28122 3.66621V3.66248C4.27165 3.66651 4.26263 3.66961 4.25398 3.67258C4.24262 3.67648 4.23189 3.68017 4.22136 3.68546C4.19561 3.69167 4.17047 3.70099 4.14652 3.71279C4.07588 3.73577 4.00524 3.7631 3.93878 3.79106C3.92112 3.79789 3.90346 3.80581 3.8858 3.81373C3.86814 3.82165 3.85048 3.82957 3.83282 3.8364C3.80857 3.84789 3.78328 3.86047 3.75799 3.87304L3.75799 3.87305C3.73269 3.88562 3.7074 3.8982 3.68315 3.90969L3.56342 3.97864C3.54128 3.98993 3.52079 4.00317 3.49988 4.01668C3.48743 4.02473 3.47483 4.03287 3.46164 4.04075C3.28145 4.15691 3.11442 4.29294 2.96355 4.4476L2.95457 4.45692C2.93476 4.48002 2.91503 4.50243 2.89556 4.52454L2.89556 4.52454C2.86268 4.56188 2.83057 4.59835 2.80011 4.63581L2.79113 4.6445C2.30142 5.3203 2.05597 6.15325 2.09847 6.99738V7.26509H3.06533V6.9949C3.06533 5.81846 3.44009 5.08613 4.27404 4.71096C4.59253 4.57618 4.92898 4.49294 5.27142 4.46251H5.2804V3.46868L5.26903 3.46434ZM13.9569 4.63205L13.9611 4.64074C14.4502 5.31717 14.6945 6.15074 14.6514 6.99487V7.26506H13.6851V6.98803C13.7055 6.48988 13.6055 5.99421 13.3936 5.54637C13.19 5.16312 12.8644 4.8656 12.471 4.7041C12.1579 4.56931 11.8263 4.48546 11.488 4.45564V3.46679C11.8227 3.49785 12.1537 3.56369 12.4764 3.66369V3.65872C12.4946 3.66695 12.5084 3.67184 12.5321 3.68024L12.5363 3.6817C12.5473 3.6856 12.5576 3.6895 12.5678 3.69335C12.5819 3.69871 12.5958 3.70397 12.6111 3.70903C12.6773 3.73075 12.7392 3.75635 12.8029 3.78268L12.8141 3.7873C12.8435 3.79762 12.8712 3.81042 12.8961 3.82196C12.9042 3.8257 12.912 3.8293 12.9194 3.83264C12.9721 3.85562 13.026 3.88295 13.0691 3.90594C13.0979 3.92085 13.1259 3.93681 13.1521 3.95179C13.1663 3.95988 13.18 3.96769 13.193 3.97488C13.2145 3.98673 13.2331 3.9994 13.2511 4.01159C13.2642 4.02049 13.2769 4.02913 13.29 4.037C13.4708 4.15377 13.6396 4.29042 13.7923 4.44384L13.7977 4.45316C13.854 4.50968 13.9072 4.56931 13.9569 4.63205Z" fill="#6F7174"/>
<path d="M11.5157 2.77111V4.97062C11.5157 5.24775 11.2908 5.47221 11.0132 5.47221C10.7355 5.47221 10.5107 5.24775 10.5107 4.97062V2.77612C10.5081 2.49899 10.7318 2.27264 11.0094 2.27076C11.287 2.26888 11.5138 2.49147 11.5157 2.7686V2.77111Z" fill="#6F7174"/>
<path d="M6.23937 2.77914V4.97321C6.23937 5.25154 6.01423 5.47722 5.73656 5.47722C5.45889 5.47722 5.23438 5.25154 5.23438 4.97321V2.77914C5.23438 2.50081 5.45889 2.27576 5.73656 2.27576C6.01423 2.27576 6.23937 2.50081 6.23937 2.77914Z" fill="#6F7174"/>
<path fill-rule="evenodd" clip-rule="evenodd" d="M2.09375 12.6768V7.26501H14.6562V12.6768C14.6562 15.0368 13.3383 16.2291 10.7264 16.2291H6.01766C3.4117 16.2291 2.09375 15.0368 2.09375 12.6768ZM4.92748 10.2736C4.92748 10.6011 5.18508 10.8667 5.50259 10.8667C5.82609 10.8667 6.08369 10.5949 6.07769 10.2674C6.07769 9.94002 5.82009 9.67437 5.50858 9.67437H5.50259C5.18508 9.67437 4.92748 9.9462 4.92748 10.2736ZM7.79694 10.2737C7.79694 10.6011 8.06054 10.8668 8.37804 10.8668C8.69555 10.8668 8.95315 10.6011 8.95315 10.2675C8.95315 9.94626 8.69555 9.68061 8.37804 9.67443H8.37205C8.05454 9.68061 7.79694 9.94626 7.79694 10.2737ZM11.2476 10.8668C10.9301 10.8668 10.6725 10.6012 10.6725 10.2737C10.6725 9.94631 10.9241 9.68067 11.2476 9.68067C11.5651 9.68067 11.8227 9.94631 11.8227 10.2737C11.8227 10.6012 11.5651 10.8668 11.2476 10.8668ZM11.2476 13.3997C10.9301 13.3997 10.6725 13.134 10.6665 12.8066C10.6665 12.4792 10.9241 12.2135 11.2416 12.2135H11.2476C11.5651 12.2135 11.8227 12.4792 11.8227 12.8066C11.8227 13.134 11.5651 13.3997 11.2476 13.3997ZM8.37804 13.3997C8.06054 13.3997 7.79694 13.1341 7.79694 12.8066C7.79694 12.4792 8.05454 12.2136 8.37205 12.2074H8.37804C8.69555 12.2136 8.94716 12.4792 8.95315 12.8005C8.95315 13.1341 8.69555 13.3997 8.37804 13.3997ZM5.50247 13.3997C5.18497 13.3997 4.92737 13.1341 4.92737 12.8066C4.92138 12.4792 5.17898 12.2074 5.50247 12.2074C5.81998 12.2074 6.07758 12.473 6.07758 12.8005C6.07758 13.1279 5.81998 13.3997 5.50247 13.3997Z" fill="#6F7174"/>
</svg>
