<svg width="50" height="50" viewBox="0 0 50 50" fill="none" xmlns="http://www.w3.org/2000/svg">
<path d="M16.25 4.16675H33.75C40.4167 4.16675 45.8334 9.58342 45.8334 16.2501V33.7501C45.8334 36.9548 44.5603 40.0282 42.2942 42.2943C40.0282 44.5604 36.9547 45.8334 33.75 45.8334H16.25C9.58335 45.8334 4.16669 40.4168 4.16669 33.7501V16.2501C4.16669 13.0454 5.43975 9.97194 7.70581 7.70587C9.97188 5.43981 13.0453 4.16675 16.25 4.16675ZM15.8334 8.33342C13.8442 8.33342 11.9366 9.12359 10.5301 10.5301C9.12353 11.9366 8.33335 13.8443 8.33335 15.8334V34.1667C8.33335 38.3126 11.6875 41.6668 15.8334 41.6668H34.1667C36.1558 41.6668 38.0635 40.8766 39.47 39.4701C40.8765 38.0635 41.6667 36.1559 41.6667 34.1667V15.8334C41.6667 11.6876 38.3125 8.33342 34.1667 8.33342H15.8334ZM35.9375 11.4584C36.6282 11.4584 37.2906 11.7328 37.7789 12.2212C38.2673 12.7095 38.5417 13.3719 38.5417 14.0626C38.5417 14.7533 38.2673 15.4156 37.7789 15.904C37.2906 16.3924 36.6282 16.6667 35.9375 16.6667C35.2469 16.6667 34.5845 16.3924 34.0961 15.904C33.6077 15.4156 33.3334 14.7533 33.3334 14.0626C33.3334 13.3719 33.6077 12.7095 34.0961 12.2212C34.5845 11.7328 35.2469 11.4584 35.9375 11.4584ZM25 14.5834C27.7627 14.5834 30.4122 15.6809 32.3657 17.6344C34.3192 19.5879 35.4167 22.2374 35.4167 25.0001C35.4167 27.7628 34.3192 30.4123 32.3657 32.3658C30.4122 34.3193 27.7627 35.4167 25 35.4167C22.2374 35.4167 19.5878 34.3193 17.6343 32.3658C15.6808 30.4123 14.5834 27.7628 14.5834 25.0001C14.5834 22.2374 15.6808 19.5879 17.6343 17.6344C19.5878 15.6809 22.2374 14.5834 25 14.5834ZM25 18.7501C23.3424 18.7501 21.7527 19.4086 20.5806 20.5807C19.4085 21.7528 18.75 23.3425 18.75 25.0001C18.75 26.6577 19.4085 28.2474 20.5806 29.4195C21.7527 30.5916 23.3424 31.2501 25 31.2501C26.6576 31.2501 28.2473 30.5916 29.4194 29.4195C30.5915 28.2474 31.25 26.6577 31.25 25.0001C31.25 23.3425 30.5915 21.7528 29.4194 20.5807C28.2473 19.4086 26.6576 18.7501 25 18.7501Z" fill="white"/>
</svg>
