<svg width="17" height="17" viewBox="0 0 17 17" fill="none" xmlns="http://www.w3.org/2000/svg">
<path fill-rule="evenodd" clip-rule="evenodd" d="M5.86548 2.39403C7.36757 1.52125 9.21388 1.53651 10.7019 2.43399C12.1752 3.34975 13.0707 4.98412 13.0624 6.74224C13.0281 8.48883 12.0679 10.1306 10.8676 11.3998C10.1749 12.1357 9.39991 12.7863 8.55857 13.3385C8.47192 13.3886 8.377 13.4222 8.27851 13.4375C8.18371 13.4335 8.09139 13.4055 8.00988 13.356C6.7254 12.5263 5.59853 11.4671 4.68346 10.2296C3.91776 9.19656 3.48275 7.9485 3.43749 6.65491C3.43649 4.89342 4.36339 3.26681 5.86548 2.39403ZM6.73346 7.38387C6.98613 8.00679 7.58253 8.4131 8.2442 8.41311C8.67766 8.41622 9.09435 8.24259 9.4014 7.93091C9.70845 7.61924 9.88036 7.1954 9.87883 6.75385C9.88114 6.07986 9.48434 5.47093 8.87371 5.21137C8.26308 4.95181 7.55906 5.09283 7.09037 5.56858C6.62169 6.04433 6.48078 6.76096 6.73346 7.38387Z" fill="#6F7174"/>
<path opacity="0.4" d="M8.24997 15.5C10.1484 15.5 11.6875 15.1922 11.6875 14.8125C11.6875 14.4328 10.1484 14.125 8.24997 14.125C6.35149 14.125 4.81247 14.4328 4.81247 14.8125C4.81247 15.1922 6.35149 15.5 8.24997 15.5Z" fill="#6F7174"/>
</svg>
