<svg width="30" height="30" viewBox="0 0 30 30" fill="none" xmlns="http://www.w3.org/2000/svg">
<g clip-path="url(#clip0_123_366)">
<path fill-rule="evenodd" clip-rule="evenodd" d="M6.25 5C4.17893 5 2.5 6.67893 2.5 8.75V12.5C2.5 13.1904 3.05964 13.75 3.75 13.75C4.07184 13.75 4.38956 13.8718 4.63388 14.1161C5.12204 14.6043 5.12204 15.3957 4.63388 15.8839C4.38956 16.1282 4.07184 16.25 3.75 16.25C3.05964 16.25 2.5 16.8096 2.5 17.5V21.25C2.5 23.3211 4.17893 25 6.25 25H12.5H23.75C25.8211 25 27.5 23.3211 27.5 21.25V21.2418V21.2336V21.2254V21.2172V21.2089V21.2007V21.1925V21.1843V21.1761V21.1679V21.1597V21.1515V21.1432V21.135V21.1268V21.1186V21.1104V21.1022V21.094V21.0857V21.0775V21.0693V21.0611V21.0529V21.0447V21.0365V21.0283V21.0201V21.0118V21.0036V20.9954V20.9872V20.979V20.9708V20.9626V20.9544V20.9462V20.938V20.9298V20.9216V20.9134V20.9052V20.897V20.8888V20.8806V20.8724V20.8642V20.856V20.8478V20.8396V20.8314V20.8232V20.815V20.8068V20.7986V20.7904V20.7822V20.774V20.7658V20.7577V20.7495V20.7413V20.7331V20.7249V20.7167V20.7086V20.7004V20.6922V20.684V20.6758V20.6677V20.6595V20.6513V20.6432V20.635V20.6268V20.6187V20.6105V20.6023V20.5942V20.586V20.5779V20.5697V20.5615V20.5534V20.5452V20.5371V20.5289V20.5208V20.5126V20.5045V20.4964V20.4882V20.4801V20.4719V20.4638V20.4557V20.4475V20.4394V20.4313V20.4232V20.415V20.4069V20.3988V20.3907V20.3826V20.3745V20.3664V20.3582V20.3501V20.342V20.3339V20.3258V20.3177V20.3096V20.3015V20.2935V20.2854V20.2773V20.2692V20.2611V20.253V20.245V20.2369V20.2288V20.2207V20.2127V20.2046V20.1966V20.1885V20.1804V20.1724V20.1643V20.1563V20.1482V20.1402V20.1322V20.1241V20.1161V20.108V20.1V20.092V20.084V20.0759V20.0679V20.0599V20.0519V20.0439V20.0359V20.0279V20.0199V20.0119V20.0039V19.9959V19.9879V19.9799V19.9719V19.964V19.956V19.948V19.9401V19.9321V19.9241V19.9162V19.9082V19.9003V19.8923V19.8844V19.8764V19.8685V19.8605V19.8526V19.8447V19.8368V19.8288V19.8209V19.813V19.8051V19.7972V19.7893V19.7814V19.7735V19.7656V19.7577V19.7498V19.742V19.7341V19.7262V19.7183V19.7105V19.7026V19.6948V19.6869V19.679V19.6712V19.6634V19.6555V19.6477V19.6399V19.632V19.6242V19.6164V19.6086V19.6008V19.593V19.5852V19.5774V19.5696V19.5618V19.554V19.5462V19.5385V19.5307V19.5229V19.5152V19.5074V19.4996V19.4919V19.4842V19.4764V19.4687V19.4609V19.4532V19.4455V19.4378V19.4301V19.4224V19.4147V19.407V19.3993V19.3916V19.3839V19.3762V19.3686V19.3609V19.3532V19.3456V19.3379V19.3303V19.3226V19.315V19.3073V19.2997V19.2921V19.2845V19.2768V19.2692V19.2616V19.254V19.2464V19.2389V19.2313V19.2237V19.2161V19.2085V19.201V19.1934V19.1859V19.1783V19.1708V19.1633V19.1557V19.1482V19.1407V19.1332V19.1257V19.1182V19.1107V19.1032V19.0957V19.0882V19.0807V19.0733V19.0658V19.0583V19.0509V19.0434V19.036V19.0286V19.0211V19.0137V19.0063V18.9989V18.9915V18.9841V18.9767V18.9693V18.9619V18.9545V18.9472V18.9398V18.9324V18.9251V18.9177V18.9104V18.9031V18.8957V18.8884V18.8811V18.8738V18.8665V18.8592V18.8519V18.8446V18.8374V18.8301V18.8228V18.8156V18.8083V18.8011V18.7938V18.7866V18.7794V18.7722V18.7649V18.7577V18.7505V18.7433V18.7362V18.729V18.7218V18.7146V18.7075V18.7003V18.6932V18.686V18.6789V18.6718V18.6647V18.6576V18.6505V18.6434V18.6363V18.6292V18.6221V18.615V18.608V18.6009V18.5939V18.5868V18.5798V18.5728V18.5657V18.5587V18.5517V18.5447V18.5377V18.5308V18.5238V18.5168V18.5098V18.5029V18.4959V18.489V18.4821V18.4752V18.4682V18.4613V18.4544V18.4475V18.4406V18.4338V18.4269V18.42V18.4132V18.4063V18.3995V18.3926V18.3858V18.379V18.3722V18.3654V18.3586V18.3518V18.345V18.3383V18.3315V18.3247V18.318V18.3112V18.3045V18.2978V18.2911V18.2844V18.2777V18.271V18.2643V18.2576V18.251V18.2443V18.2376V18.231V18.2244V18.2177V18.2111V18.2045V18.1979V18.1913V18.1847V18.1782V18.1716V18.165V18.1585V18.1519V18.1454V18.1389V18.1324V18.1259V18.1194V18.1129V18.1064V18.0999V18.0935V18.087V18.0806V18.0741V18.0677V18.0613V18.0549V18.0484V18.0421V18.0357V18.0293V18.0229V18.0166V18.0102V18.0039V17.9975V17.9912V17.9849V17.9786V17.9723V17.966V17.9597V17.9535V17.9472V17.941V17.9347V17.9285V17.9223V17.9161V17.9099V17.9037V17.8975V17.8913V17.8851V17.879V17.8728V17.8667V17.8606V17.8544V17.8483V17.8422V17.8361V17.8301V17.824V17.8179V17.8119V17.8058V17.7998V17.7938V17.7878V17.7818V17.7758V17.7698V17.7638V17.7578V17.7519V17.746V17.74V17.7341V17.7282V17.7223V17.7164V17.7105V17.7046V17.6988V17.6929V17.6871V17.6812V17.6754V17.6696V17.6638V17.658V17.6522V17.6464V17.6407V17.6349V17.6292V17.6234V17.6177V17.612V17.6063V17.6006V17.5949V17.5893V17.5836V17.578V17.5723V17.5667V17.5611V17.5555V17.5499V17.5443V17.5387V17.5332V17.5276V17.5221V17.5165V17.511V17.5055V17.5C27.5 16.8096 26.9404 16.25 26.25 16.25C25.9282 16.25 25.6104 16.1282 25.3661 15.8839C24.878 15.3957 24.878 14.6043 25.3661 14.1161C25.6104 13.8718 25.9282 13.75 26.25 13.75C26.9404 13.75 27.5 13.1904 27.5 12.5V8.75C27.5 6.67893 25.8211 5 23.75 5H12.5H6.25ZM5 8.75C5 8.05964 5.55964 7.5 6.25 7.5H11.25V22.5H6.25C5.55964 22.5 5 21.9404 5 21.25V18.5361C5.51178 18.3556 5.99261 18.0607 6.40165 17.6517C7.86612 16.1872 7.86612 13.8128 6.40165 12.3483C5.99261 11.9393 5.51178 11.6444 5 11.4639V8.75Z" fill="#F4F4F4"/>
</g>
<defs>
<clipPath id="clip0_123_366">
<rect width="30" height="30" fill="white"/>
</clipPath>
</defs>
</svg>
